<svg version="1" xmlns="http://www.w3.org/2000/svg" width="341.333" height="341.333" viewBox="0 0 256.000000 256.000000"><path d="M107.9 1.5c-.2.1-2.9.6-5.9 1-3 .3-11.2 2.4-18.1 4.6C41.1 20.7 9.4 57.2 1.6 102c-1.6 9.6-1.5 33.6.2 41 .6 2.5 1.3 5.8 1.6 7.5 3.1 17.5 20.1 47.1 33.3 57.8 2 1.6 2.2 2.6 2.2 13.5 0 6.4 0 13.8.1 16.3v4.7l48.8-.2c26.8-.1 49.2-.4 49.7-.8.6-.3 3.1-.9 5.5-1.3 11.4-1.6 29.2-8.5 40.6-15.6 32-20 52-50.8 56.9-87.7 3.5-27.1-2.1-53.9-16.3-77.6-3-5-5.8-9.3-6.1-9.6-.4-.3-1.7-1.9-2.9-3.5-4-5.2-14.5-15.6-20.4-20.1-16-12.4-35.1-20.6-56.6-24.2-5.2-.9-29.6-1.5-30.3-.7z"/><path d="M241 74.1c0 .3 1.1 3.8 2.4 7.7 1.4 4 2.7 8.9 3.1 10.9.3 2.1 1.1 5.6 1.7 7.8 1.6 5.8 1.7 31.2.2 40.8-8.2 51.5-46 93-96 105.6-12.2 3-13.7 3.2-33.4 3.7-10.2.3-18.9.7-19.5.8-.5.2 1.5.8 4.5 1.4 3 .6 6.9 1.5 8.5 1.9 1.7.3 25.7.8 53.5 1l50.5.4-.1-16.3v-16.3l6.8-7.4c21.6-23.7 32.2-51.1 32.2-83.6.1-16.9-1.1-24.4-6-39-2.9-8.6-8.3-21.1-8.4-19.4z"/></svg>