<?xml version="1.0" standalone="no"?>
<!DOCTYPE svg PUBLIC "-//W3C//DTD SVG 20010904//EN"
 "http://www.w3.org/TR/2001/REC-SVG-20010904/DTD/svg10.dtd">
<svg version="1.0" xmlns="http://www.w3.org/2000/svg"
 width="256.000000pt" height="256.000000pt" viewBox="0 0 256.000000 256.000000"
 preserveAspectRatio="xMidYMid meet">
<metadata>
Created by potrace 1.11, written by Peter Selinger 2001-2013
</metadata>
<g transform="translate(0.000000,256.000000) scale(0.100000,-0.100000)"
fill="#000000" stroke="none">
<path d="M1079 2545 c-2 -1 -29 -6 -59 -10 -30 -3 -112 -24 -181 -46 -428
-136 -745 -501 -823 -949 -16 -96 -15 -336 2 -410 6 -25 13 -58 16 -75 31
-175 201 -471 333 -578 20 -16 22 -26 22 -135 0 -64 0 -138 1 -163 l0 -47 488
2 c268 1 492 4 497 8 6 3 31 9 55 13 114 16 292 85 406 156 320 200 520 508
569 877 35 271 -21 539 -163 776 -30 50 -58 93 -61 96 -4 3 -17 19 -29 35 -40
52 -145 156 -204 201 -160 124 -351 206 -566 242 -52 9 -296 15 -303 7z"/>
<path d="M2410 1819 c0 -3 11 -38 24 -77 14 -40 27 -89 31 -109 3 -21 11 -56
17 -78 16 -58 17 -312 2 -408 -82 -515 -460 -930 -960 -1056 -122 -30 -137
-32 -334 -37 -102 -3 -189 -7 -195 -8 -5 -2 15 -8 45 -14 30 -6 69 -15 85 -19
17 -3 257 -8 535 -10 l505 -4 -1 163 0 163 68 74 c216 237 322 511 322 836 1
169 -11 244 -60 390 -29 86 -83 211 -84 194z"/>
</g>
</svg>
